<mxfile host="app.diagrams.net" modified="2024-04-24T08:12:29.224Z" agent="Mozilla/5.0 (Windows NT 10.0; Win64; x64; rv:124.0) Gecko/20100101 Firefox/124.0" etag="7naZ6kfG5w2POzjAhVDH" version="24.2.8" type="github">
  <diagram name="Page-1" id="eg9UZS2Orx1ASS4LcczA">
    <mxGraphModel dx="1050" dy="530" grid="1" gridSize="10" guides="1" tooltips="1" connect="1" arrows="1" fold="1" page="1" pageScale="1" pageWidth="850" pageHeight="1100" math="0" shadow="0">
      <root>
        <mxCell id="0" />
        <mxCell id="1" parent="0" />
        <mxCell id="QymYkEDB8wua_IUGyRwQ-3" value="" style="edgeStyle=orthogonalEdgeStyle;rounded=0;orthogonalLoop=1;jettySize=auto;html=1;exitX=0.45;exitY=1.05;exitDx=0;exitDy=0;exitPerimeter=0;" edge="1" parent="1" source="QymYkEDB8wua_IUGyRwQ-1" target="QymYkEDB8wua_IUGyRwQ-2">
          <mxGeometry relative="1" as="geometry">
            <Array as="points">
              <mxPoint x="419" y="160" />
              <mxPoint x="140" y="160" />
            </Array>
          </mxGeometry>
        </mxCell>
        <mxCell id="QymYkEDB8wua_IUGyRwQ-1" value="wellhive vdp" style="rounded=1;whiteSpace=wrap;html=1;" vertex="1" parent="1">
          <mxGeometry x="365" y="80" width="120" height="60" as="geometry" />
        </mxCell>
        <mxCell id="QymYkEDB8wua_IUGyRwQ-2" value="app.wellhive.com" style="whiteSpace=wrap;html=1;rounded=1;" vertex="1" parent="1">
          <mxGeometry x="80" y="180" width="120" height="60" as="geometry" />
        </mxCell>
      </root>
    </mxGraphModel>
  </diagram>
</mxfile>
